<?xml version="1.0" encoding="UTF-8"?>
<svg id="a" data-name="Слой 1" xmlns="http://www.w3.org/2000/svg" viewBox="0 0 1051.44565 548.45115">
  <defs>
    <style>
      .b {
        stroke: #777;
      }

      .b, .c, .d, .e {
        stroke-miterlimit: 10;
      }

      .b, .e {
        fill: none;
      }

      .f {
        fill: #555;
      }

      .g {
        fill: #777;
      }

      .c {
        fill: #363636;
      }

      .c, .d, .e {
        stroke: #000;
        stroke-width: 2px;
      }

      .h {
        fill: #987f00;
        opacity: .4;
      }
    </style>
  </defs>
  <polygon class="c" points="1 321.01637 105.86957 321.01637 105.86957 254.23376 140.82609 254.23376 140.82609 244.77724 152.1087 227.16854 152.1087 191.85333 162.08696 191.85333 162.08696 165.14681 150.15217 165.14681 145.75 118.48376 166.78261 116.42941 182.43478 119.26637 195.54348 115.54898 203.66304 115.54898 208.84783 109.97289 261.47826 109.97289 265.91304 106.97289 271.3913 102.14681 274.3913 97.58159 275.04348 94.45115 275.04348 87.14681 294.34783 73.58159 308.53261 68.20115 323.30435 68.20115 323.30435 70.64681 351.77174 70.64681 351.77174 46.48376 371.1413 46.48376 371.1413 21.73376 385.52174 21.73376 385.52174 1.19028 429.47826 8.88594 539.30435 9.53811 539.30435 28.97289 563.43478 28.97289 563.43478 63.53811 558.47826 63.53811 558.47826 69.79898 562.45652 69.79898 562.45652 205.97289 553.26087 205.97289 553.26087 208.05985 555.6087 208.05985 555.6087 222.08159 553.32609 222.08159 553.32609 224.16854 605.53261 224.16854 605.53261 195.27724 613.26087 197.13594 621.77174 201.14681 660.21739 227.49463 668.82609 231.53811 684.34783 236.88594 730.45652 252.40768 742.78261 253.77724 789.54348 258.8642 825.86957 270.92941 839.43478 281.62507 872.17391 281.62507 872.17391 286.58159 909.96739 286.58159 909.96739 277.54898 993.41304 277.54898 993.41304 286.84246 1050.44565 286.84246 1050.44565 297.5055 1042.13043 297.5055 1042.13043 361.28811 1050.44565 361.28811 1050.44565 371.07072 993.51087 371.07072 993.51087 379.38594 910.45652 379.38594 910.45652 371.62507 871.65217 371.62507 871.65217 377.62507 845.20652 377.62507 843.83696 382.51637 840.51087 387.30985 834.44565 391.02724 831.51087 392.29898 802.75 392.29898 793.32609 395.23376 786.93478 399.66854 781.65217 406.19028 779.82609 415.71202 779.8913 419.10333 779.17391 455.69028 775.65217 474.27724 767.63043 496.58159 758.63043 511.05985 743.17391 528.08159 728.30435 538.2555 710.5 545.49463 700.91304 547.45115 641.63043 547.45115 640.84783 536.49463 638.30435 527.88594 636.73913 523.87507 622.16304 528.08159 599.66304 528.08159 596.04348 522.70115 592.71739 519.47289 585.77174 516.53811 581.36957 513.70115 581.36957 502.19028 538.91304 502.19028 529 500.62507 517 498.92941 506.69565 496.97289 497.56522 495.14681 449.5 495.14681 448.13043 462.34246 445.78261 445.51637 442.65217 430.05985 437.69565 416.10333 428.56522 403.97289 418.91304 395.10333 407.17391 389.49463 392.95652 386.88594 378.6087 387.79898 366.86957 391.58159 354.73913 398.49463 343.84783 406.19028 330.93478 413.82072 316.26087 419.10333 313.91304 419.20115 313.91304 415.87507 311.95652 415.87507 311.95652 419.98376 270.18478 419.98376 270.18478 414.79898 267.83696 414.79898 267.83696 418.80985 237.02174 418.80985 223.81522 416.55985 206.69565 412.2555 190.45652 406.19028 188.69565 405.21202 190.55435 401.69028 174.90217 395.13594 166.78261 390.53811 160.91304 383.29898 157.58696 376.54898 156.21739 368.72289 158.8587 368.72289 158.8587 359.62507 153.67391 359.62507 153.67391 335.46202 140.36957 313.2555 139.88043 319.51637 140.36957 325.28811 141.83696 339.57072 144.67391 367.54898 130.97826 370.19028 124.26087 369.99463 106.06522 368.29898 106.06522 352.84246 1 352.84246 1 321.01637"/>
  <polygon class="f" points="479.59783 144.76637 501.49457 144.76637 501.49457 27.35876 465.05435 27.35876 465.05435 28.97289 450.67391 28.97289 447.29891 30.8805 443.19022 34.30441 440.98913 36.99463 440.5 39.78268 440.5 115.94028 441.67391 120.04898 444.80435 122.88594 448.61957 125.33159 453.70652 126.89681 462.51087 126.89681 462.51087 118.90768 479.71196 118.90768 479.59783 144.76637"/>
  <path class="d" d="m616.1957,510.73376v-23.34781h-12.19568v-37.36957h77.64124c-.04407.89792-.13525,2.1647-.34229,3.66846-.37427,2.71811-1.23035,6.95721-4.35327,13.79349-1.6272,3.56204-4.18762,9.16702-8.95117,15.3587-10.81555,14.05804-24.52026,20.13339-30.375,22.64673-6.94214,2.98016-13.04382,4.46686-17.21387,5.25845-1.40332-.00281-2.80664-.00565-4.20996-.00845Z"/>
  <path class="d" d="m604.06521,427.02724v-37.5163h12.52173v-23.30707c.95361-.05304,2.35254-.09332,4.03564,0,5.76648.31976,9.98438,1.93716,14.45349,3.69293,1.51013.59326,5.78027,2.32434,11.00549,5.33151,2.17334,1.25079,5.66907,3.28152,9.83142,6.60327,4.78101,3.81546,7.94189,7.33939,9.13049,8.70651,3.64771,4.19559,5.83826,7.76666,7.69568,10.82608,1.77087,2.91687,3.33997,5.52884,4.82605,9.32608,1.09705,2.80316,1.67627,5.20856,2.34778,7.89133.8147,3.25452,1.34033,6.02432,1.67944,8.05435l-77.52722.3913Z"/>
  <polygon class="d" points="563.07609 473.91039 563.07609 401.46202 524.94837 401.46202 520.7663 400.32072 516.85326 398.55985 513.18478 395.95115 510.6413 392.95115 509.92391 390.01637 509.92391 383.13594 510.83696 379.54898 512.30435 375.79898 514.91304 371.98376 490.32609 396.40768 487.09783 413.95115 485.1413 413.95115 490.58696 413.95115 490.58696 466.2555 496.09783 466.2555 496.09783 470.7555 496.65217 470.7555 496.65217 466.21637 506.82609 468.21202 522.96739 470.65768 539.8913 473.42941 563.07609 473.91039"/>
  <polygon class="d" points="622 346.94028 599.27174 346.94028 591.05435 356.13594 587.33696 357.96202 578.56522 361.09246 578.56522 335.52724 566.69565 335.52724 566.69565 312.44028 559.65217 312.44028 559.65217 286.45115 603.47826 286.45115 604.78261 289.64681 606.44565 291.53811 606.44565 298.58159 606.02174 309.27724 607.09783 316.09246 609.15217 321.79898 611.79348 326.3642 615.38043 330.34246 617.76087 333.44028 619.52174 338.22561 620.98913 342.6767 622 346.94028"/>
  <path class="d" d="m540.59237,365.51095v-52.53262h3.06525v-26.08698h-27.44025v1.17395l-75.03259-22.69568-21.47284,21.47284c-17.38855-5.2337-34.77716-10.46741-52.16571-15.70111,2.37958-7.62872,4.75909-15.25739,7.13867-22.88611-.93121-.33868-1.86237-.67737-2.79358-1.01605l-9.30981,26.7337,36.08154,36.15216,26.03802-25.19019,4.45111-2.49457,5.13586-1.80981,5.82068-.19562,6.30975.3913,5.13586,1.76086,4.20654,2.20111,4.01086,2.69019,70.07605,69.08151-2.77173,2.90219.22827.22824,1.41846-1.41846,11.51093,8.02988h7.79346c.00336-.26135.00677-.52267.01013-.78403-2.48163-.00223-4.96332-.00449-7.44495-.00671Z"/>
  <rect class="d" x="944.69565" y="316.45115" width="26.41304" height="24.52174"/>
  <polygon class="d" points="377.66304 331.19028 341.59783 296.52724 339.05435 295.54898 302.46739 295.54898 302.46739 304.64681 275.66304 304.64681 275.66304 295.54898 261.13587 295.54898 258.88587 296.86963 256.34239 298.38594 254.19022 301.46746 252.77174 306.30985 226.32609 387.40768 233.03533 389.3642 241.81522 390.51365 251.72826 391.35333 268.65217 392.46202 268.65217 395.50278 269.64674 395.50278 269.64674 384.25278 313.61957 384.25278 313.61957 336.44028 373.34239 336.44028 377.66304 331.19028"/>
  <polygon class="d" points="338.41848 265.85876 340.71739 255.83159 343.30978 247.22289 345.65761 238.85876 313.13043 238.85876 313.13043 248.64137 227.28804 248.64137 227.28804 166.32072 179.30435 166.32072 179.30435 190.87507 203.56522 190.87507 214.13043 232.84246 214.13043 285.34246 201.86957 328.58159 178.88043 328.58159 178.88043 361.43485 171.25 361.43485 171.25 367.71202 174.28261 367.71202 174.44565 371.55985 176.27174 374.46202 180.86957 377.42941 190.22826 380.82072 196.78261 383.03811 198.83696 376.22289 201.93478 366.79898 205.26087 356.39681 208.19565 347.0055 212.76087 332.62507 218.69565 315.08159 224.30435 298.19028 228.02174 286.38594 232.08152 279.5055 236.09239 275.64137 241.13043 271.43485 246.41304 269.13594 252.77174 267.17941 257.56522 266.59246 276.10326 266.59246 276.10326 257.98376 302.71196 257.98376 302.71196 266.0055 338.41848 265.85876"/>
  <rect class="d" x="282.07065" y="122.94708" width="6.05299" height="5.80842"/>
  <rect class="d" x="534.97554" y="206.91854" width="8.80435" height="16.45924"/>
  <polygon class="d" points="520.03261 64.97289 544.68478 64.97289 544.68478 68.49463 538.03261 68.49463 538.03261 145.53268 520.03261 145.53268 520.03261 64.97289"/>
  <polygon class="d" points="324.54348 86.52724 350.63043 86.52724 350.63043 148.58159 306.96739 148.58159 324.4538 127.85061 324.54348 86.52724"/>
  <polygon class="d" points="369.11141 133.45115 384.61685 133.45115 384.61685 151.59789 386.59783 154.55713 413.63043 149.69028 413.63043 198.57072 313.03261 198.57072 313.03261 184.2555 297.28261 169.90768 369.15217 169.90768 369.11141 133.45115"/>
  <polygon class="d" points="462.6087 119.46202 479.59783 119.46202 479.59783 180.30985 500.63043 180.30985 500.63043 207.40768 521.64674 207.40768 521.64674 223.52452 516.21739 223.52452 516.21739 212.42126 473.66304 212.42126 473.66304 180.26094 455.58967 180.26094 455.58967 147.46474 462.51087 147.46474 462.6087 119.46202"/>
  <path class="d" d="m732.3478,333.66854c6.90747-.1391,12.84131,5.48291,12.91309,12.52173.07153,7.00851-5.69543,12.78146-12.65222,12.78262-7.12244.00119-12.86438-6.04803-12.6521-13.04349.20154-6.64084,5.70813-12.12628,12.39124-12.26086Z"/>
  <path class="d" d="m661.94807,274.59918c6.90747-.1391,12.84131,5.48291,12.91309,12.52173.07153,7.00848-5.69543,12.78143-12.65222,12.78259-7.12244.00122-12.86438-6.04803-12.6521-13.04346.20154-6.64087,5.70813-12.12628,12.39124-12.26086Z"/>
  <path class="d" d="m786.66007,279.99589c6.90747-.1391,12.84131,5.48291,12.91309,12.52173.07153,7.00851-5.69543,12.78146-12.65222,12.78262-7.12244.00119-12.86438-6.04803-12.6521-13.04349.20154-6.64084,5.70813-12.12628,12.39124-12.26086Z"/>
  <path class="d" d="m432.50566,357.21397c5.32249-.10718,9.89476,4.22481,9.95007,9.64851.05512,5.40035-4.38857,9.84865-9.74906,9.84954-5.48813.00092-9.91254-4.66026-9.74897-10.05055.15529-5.11704,4.39835-9.3438,9.54796-9.4475Z"/>
  <path class="d" d="m269.27036,205.06175c5.2065-.10485,9.67912,4.13274,9.73323,9.43824.05392,5.28266-4.29293,9.63402-9.5366,9.63489-5.36853.0009-9.69651-4.5587-9.53651-9.83152.15191-5.00553,4.3025-9.14017,9.33988-9.24161Z"/>
  <line class="d" x1="140.04348" y1="254.31528" x2="140.04348" y2="279.76637"/>
  <line class="d" x1="140.10054" y1="294.10604" x2="140.10054" y2="298.85061"/>
  <line class="d" x1="203.5163" y1="115.68349" x2="203.5163" y2="119.193"/>
  <line class="d" x1="203.54891" y1="132.04898" x2="203.54891" y2="166.32072"/>
  <line class="d" x1="252.03804" y1="170.5517" x2="227.28804" y2="170.5517"/>
  <polyline class="e" points="243.52717 154.94844 243.52717 166.32072 227.28804 166.32072"/>
  <line class="e" x1="274.08152" y1="170.47833" x2="297.91419" y2="170.47833"/>
  <line class="e" x1="279.18478" y1="148.58159" x2="306.96739" y2="148.58159"/>
  <polyline class="e" points="350.73234 111.99056 369.16848 111.99056 369.16848 133.45115"/>
  <line class="e" x1="413.97283" y1="149.54354" x2="426.31522" y2="147.27724"/>
  <line class="e" x1="443.02717" y1="147.47289" x2="455.58967" y2="147.47289"/>
  <line class="e" x1="483.85326" y1="144.97833" x2="479.71196" y2="144.97833"/>
  <polyline class="e" points="497.85054 144.97833 501.49457 144.97833 501.49457 40.6142"/>
  <line class="e" x1="471.51087" y1="42.47289" x2="501.49457" y2="42.47289"/>
  <polyline class="e" points="464.54891 43.2555 464.54891 27.24463 520.15489 27.24463 520.15489 64.97289"/>
  <line class="e" x1="501.49457" y1="29.71882" x2="501.49457" y2="27.35876"/>
  <line class="e" x1="526.04348" y1="180.43213" x2="500.63043" y2="180.43213"/>
  <line class="e" x1="555.57609" y1="180.52181" x2="562.45652" y2="180.52181"/>
  <line class="e" x1="521.64674" y1="207.40768" x2="524.09239" y2="207.40768"/>
  <line class="e" x1="521.64674" y1="223.52452" x2="524.05978" y2="223.52452"/>
  <line class="e" x1="516.21739" y1="223.52452" x2="516.21739" y2="226.40224"/>
  <line class="e" x1="534.97554" y1="206.91854" x2="532.1019" y2="206.91854"/>
  <line class="e" x1="534.97554" y1="223.37778" x2="532.08967" y2="223.37778"/>
  <line class="e" x1="543.77989" y1="223.37778" x2="546.625" y2="223.37778"/>
  <line class="e" x1="543.77989" y1="206.91854" x2="546.44565" y2="206.91854"/>
  <line class="e" x1="543.65761" y1="286.89135" x2="546.00543" y2="286.89135"/>
  <line class="e" x1="559.65217" y1="286.45115" x2="557.08424" y2="286.45115"/>
  <line class="e" x1="578.56522" y1="361.09246" x2="578.56522" y2="373.95659"/>
  <line class="e" x1="578.56522" y1="365.83702" x2="570.6087" y2="365.83702"/>
  <polyline class="e" points="563.07609 401.46202 579.21739 401.46202 579.21739 394.05985"/>
  <polyline class="e" points="563.07609 473.91039 579.93478 473.91039 579.93478 478.84246"/>
  <line class="e" x1="580.53804" y1="498.95387" x2="580.53804" y2="502.19028"/>
  <line class="e" x1="496.55435" y1="491.88594" x2="496.55435" y2="495.14681"/>
  <line class="e" x1="463" y1="487.58159" x2="463" y2="495.14681"/>
  <polyline class="e" points="463 473.0055 461.63043 414.40768 473.22283 414.40768"/>
  <line class="e" x1="313.61957" y1="384.25278" x2="313.61957" y2="404.08702"/>
  <line class="e" x1="226.32609" y1="387.40768" x2="222.78804" y2="386.28268"/>
  <line class="e" x1="197.94365" y1="379.1864" x2="201.80435" y2="379.1864"/>
  <line class="e" x1="243.54348" y1="109.97289" x2="243.54348" y2="114.73376"/>
  <line class="e" x1="516.21737" y1="286.89135" x2="516.21737" y2="283.17398"/>
  <line class="e" x1="313.13043" y1="238.85876" x2="313.13043" y2="221.88594"/>
  <line class="e" x1="313.03261" y1="198.57072" x2="313.03261" y2="201.92941"/>
  <line class="e" x1="344.1413" y1="198.57072" x2="344.1413" y2="208.04354"/>
  <line class="e" x1="383.56522" y1="198.57072" x2="383.56522" y2="208.04354"/>
  <line class="e" x1="875.63043" y1="371.62507" x2="875.63043" y2="363.83159"/>
  <line class="e" x1="875.63043" y1="342.70115" x2="875.63043" y2="323.33159"/>
  <line class="e" x1="875.63043" y1="297.70115" x2="875.63043" y2="286.58159"/>
  <polyline class="e" points="637.48497 525.78629 648.13587 521.72289 664.81522 511.45115 674.30435 503.62507 682.61957 495.21202 690.15217 484.15768 694.94565 473.88594 698.46739 464.39681 699.83696 460.77724 700.61957 450.01638"/>
  <polyline class="e" points="700.61957 427.02724 699.73913 418.17398 695.33696 406.04354 690.54348 394.64681 679.58696 379.71202 661.09783 362.7555 647.40217 355.32072 634.19565 350.33159 622 346.94028"/>
  <rect class="g" x="480.54348" y="437.34789" width="10.04348" height="6.08152"/>
  <rect class="g" x="464.49185" y="403.47561" width="6.08967" height="10.93207"/>
  <polygon class="g" points="443.76087 423.79898 445.84783 422.62507 445.84783 419.85333 449.1413 419.85333 449.1413 417.83159 441.18478 417.83159 442.22826 422.88594 443.76087 423.79898"/>
  <polygon class="g" points="358.3587 393.73376 354.41304 387.37507 359.59783 384.04898 363.80435 390.79898 358.3587 393.73376"/>
  <polygon class="g" points="509.33696 375.34246 502.84783 362.07072 506.66304 360.1142 512.59783 372.47289 509.33696 375.34246"/>
  <polygon class="g" points="476.8913 324.21202 486.34783 315.14681 479.69565 307.97289 472.71739 314.16854 474.02174 316.09246 464.82609 316.09246 464.82609 319.97289 474.73913 320.16854 476.8913 324.21202"/>
  <polygon class="g" points="543.65761 285.99463 549.02174 274.32072 543.28261 272.23376 537.21739 285.99463 543.65761 285.99463"/>
  <polygon class="g" points="478.65217 224.23376 471.21739 220.05985 475.58696 212.69028 481.26087 212.69028 478.65217 224.23376"/>
  <rect class="g" x="369.86957" y="122.05441" width="5.08696" height="10.61413"/>
  <polygon class="g" points="406.26087 96.08159 405.73913 99.73376 402.08696 101.62507 397.91304 99.14681 397.06522 95.3642 399.47826 91.51637 403.32609 91.51637 404.76087 91.97289 417.34783 83.16854 420.34783 87.27724 406.26087 96.08159"/>
  <polygon class="g" points="380.69565 70.38594 378.80435 68.29898 378.80435 65.23376 380.30435 63.34246 382.71739 61.97289 385.06522 62.29898 387.15217 63.73376 388.06522 65.42941 387.80435 68.29898 386.56522 70.38594 385.84783 70.71202 385.3913 86.52724 379.91304 86.52724 380.69565 70.38594"/>
  <line class="b" x1="385.52174" y1="20.82072" x2="398.82609" y2="24.08159"/>
  <line class="b" x1="402.86957" y1="25.19028" x2="407.43478" y2="25.71202"/>
  <polygon class="g" points="430.71739 21.8642 438.41304 21.8642 438.41304 9.73376 430.45652 9.73376 430.71739 21.8642"/>
  <polygon class="g" points="464.125 118.90768 459.08696 104.44572 470.99728 98.86963 472.68478 102.39137 465.88587 105.81528 468.67391 118.90768 464.125 118.90768"/>
  <polygon class="g" points="481 99.21202 479.09239 96.08159 501.49457 85.71202 501.49457 93.73376 481 99.21202"/>
  <polygon class="g" points="446.61413 110.02181 449.74457 107.91854 444.02174 98.86963 441.13587 100.87507 446.61413 110.02181"/>
  <path class="g" d="m455.66304,84.44028l-5.03804.29348-3.27717-1.125-1.90761-2.73913.29348-4.94022,2.39674-3.22826,3.27717-1.80978,4.01087-.44022h1.41848v2.59239s-1.17391.04891-1.46739.04891-.58696,1.5163-.58696,1.5163l1.46739.63587.58696,2.78804,5.42935-.04891v5.625l-6.3587-.44022-.24457,1.27174Z"/>
  <polygon class="h" points="779.19685 454.52066 769.19565 443.46202 764.01087 437.69028 753.44565 433.67941 738.67391 431.23376 728.40217 426.83159 720.08696 417.83159 714.31522 403.94028 709.71739 391.32072 702.67391 379.19028 693.47826 366.76637 685.3587 357.76637 673.52174 348.8642 659.72826 341.33159 646.32609 336.14681 636.08696 332.49463 624.93478 324.08159 616.52174 312.01637 614.04348 299.9035 614.8913 283.90768 617.23913 268.38594 617.30435 251.69028 614.56522 237.92941 610.97826 231.47289 606.86957 225.79898 605.38587 224.31528 605.38587 195.27724 612.73913 199.38594 619.3913 204.08159 627.28261 212.10333 631.13043 218.16854 635.63043 227.49463 638.1087 236.10333 639.41304 243.01637 639.21739 252.8642 636.47826 266.55985 633.15217 283.51637 632.23913 290.29898 632.30435 300.47289 635.1087 307.84246 642.41304 315.66854 651.21739 321.53811 670.88043 331.45115 679.09783 335.7555 687.6087 342.21202 696.6087 349.15768 706.78261 361.09246 720.21739 377.29898 725.56522 380.3642 733.19565 381.92941 740.72826 381.04898 749.53261 378.1142 762.67391 373.64681 771.93478 372.73376 784.0163 375.61963 789.93478 380.3642 796.7337 387.75007 800.2845 393.06678 793.32609 395.23376 786.93478 399.66854 781.65217 406.19028 779.82609 415.71202 779.19685 454.52066"/>
  <polygon class="h" points="590.83572 518.67782 608.22283 501.27724 604.26087 497.21746 586.65217 515.11963 590.83572 518.67782"/>
  <rect class="h" x="601.03261" y="427.97289" width="11.86957" height="21.09783"/>
  <polygon class="h" points="604.45652 379.19028 609.10326 374.49463 590.82609 357.27724 585.77174 360.30985 604.45652 379.19028"/>
  <polygon class="h" points="367.42391 257.05441 371.28804 245.95115 347.125 237.78268 343.21196 250.10876 367.42391 257.05441"/>
  <polygon class="h" points="432.21739 247.71202 413.36957 241.38594 426.15217 203.42941 444.28261 209.16854 432.21739 247.71202"/>
  <polygon class="h" points="419.36957 183.24463 449.30842 183.24463 449.30842 171.49327 419.36957 171.1142 419.36957 183.24463"/>
  <polygon class="h" points="279.18478 168.96202 336.21739 168.99463 336.6087 149.69028 279.18478 149.69028 279.18478 168.96202"/>
</svg>